solid	cube20x20x10mm_hole10x5mm											
			facet	normal	-1.000000000000	0.000000000000	0.000000000000					
						outer	loop					
									vertex	0.000000000000	10.000000000000	20.000000000000
									vertex	0.000000000000	10.000000000000	0.000000000000
									vertex	0.000000000000	0.000000000000	20.000000000000
						endloop						
			endfacet									
			facet	normal	-1.000000000000	0.000000000000	0.000000000000					
						outer	loop					
									vertex	0.000000000000	0.000000000000	20.000000000000
									vertex	0.000000000000	10.000000000000	0.000000000000
									vertex	0.000000000000	0.000000000000	0.000000000000
						endloop						
			endfacet									
			facet	normal	0.000000000000	0.000000000000	1.000000000000					
						outer	loop					
									vertex	20.000000000000	10.000000000000	20.000000000000
									vertex	0.000000000000	10.000000000000	20.000000000000
									vertex	20.000000000000	0.000000000000	20.000000000000
						endloop						
			endfacet									
			facet	normal	0.000000000000	0.000000000000	1.000000000000					
						outer	loop					
									vertex	20.000000000000	0.000000000000	20.000000000000
									vertex	0.000000000000	10.000000000000	20.000000000000
									vertex	0.000000000000	0.000000000000	20.000000000000
						endloop						
			endfacet									
			facet	normal	1.000000000000	0.000000000000	0.000000000000					
						outer	loop					
									vertex	20.000000000000	10.000000000000	0.000000000000
									vertex	20.000000000000	10.000000000000	20.000000000000
									vertex	20.000000000000	0.000000000000	0.000000000000
						endloop						
			endfacet									
			facet	normal	1.000000000000	0.000000000000	0.000000000000					
						outer	loop					
									vertex	20.000000000000	0.000000000000	0.000000000000
									vertex	20.000000000000	10.000000000000	20.000000000000
									vertex	20.000000000000	0.000000000000	20.000000000000
						endloop						
			endfacet									
			facet	normal	0.000000000000	0.000000000000	-1.000000000000					
						outer	loop					
									vertex	0.000000000000	10.000000000000	0.000000000000
									vertex	20.000000000000	10.000000000000	0.000000000000
									vertex	0.000000000000	0.000000000000	0.000000000000
						endloop						
			endfacet									
			facet	normal	0.000000000000	0.000000000000	-1.000000000000					
						outer	loop					
									vertex	0.000000000000	0.000000000000	0.000000000000
									vertex	20.000000000000	10.000000000000	0.000000000000
									vertex	20.000000000000	0.000000000000	0.000000000000
						endloop						
			endfacet									
			facet	normal	0.000000000000	1.000000000000	0.000000000000					
						outer	loop					
									vertex	11.710100000000	10.000000000000	5.301536000000
									vertex	12.747550000000	10.000000000000	5.822561000000
									vertex	20.000000000000	10.000000000000	0.000000000000
						endloop						
			endfacet									
			facet	normal	0.000000000000	1.000000000000	0.000000000000					
						outer	loop					
									vertex	20.000000000000	10.000000000000	0.000000000000
									vertex	12.747550000000	10.000000000000	5.822561000000
									vertex	13.636870000000	10.000000000000	6.568791000000
						endloop						
			endfacet									
			facet	normal	0.000000000000	1.000000000000	0.000000000000					
						outer	loop					
									vertex	20.000000000000	10.000000000000	0.000000000000
									vertex	13.636870000000	10.000000000000	6.568791000000
									vertex	14.330130000000	10.000000000000	7.500000000000
						endloop						
			endfacet									
			facet	normal	0.000000000000	1.000000000000	0.000000000000					
						outer	loop					
									vertex	14.591080000000	10.000000000000	11.980400000000
									vertex	14.010620000000	10.000000000000	12.985790000000
									vertex	20.000000000000	10.000000000000	20.000000000000
						endloop						
			endfacet									
			facet	normal	0.000000000000	1.000000000000	0.000000000000					
						outer	loop					
									vertex	8.846921000000	10.000000000000	14.865220000000
									vertex	0.000000000000	10.000000000000	20.000000000000
									vertex	10.000000000000	10.000000000000	15.000000000000
						endloop						
			endfacet									
			facet	normal	0.000000000000	1.000000000000	0.000000000000					
						outer	loop					
									vertex	10.000000000000	10.000000000000	15.000000000000
									vertex	0.000000000000	10.000000000000	20.000000000000
									vertex	20.000000000000	10.000000000000	20.000000000000
						endloop						
			endfacet									
			facet	normal	0.000000000000	1.000000000000	0.000000000000					
						outer	loop					
									vertex	10.000000000000	10.000000000000	15.000000000000
									vertex	20.000000000000	10.000000000000	20.000000000000
									vertex	11.153080000000	10.000000000000	14.865220000000
						endloop						
			endfacet									
			facet	normal	0.000000000000	1.000000000000	0.000000000000					
						outer	loop					
									vertex	14.010620000000	10.000000000000	12.985790000000
									vertex	13.213940000000	10.000000000000	13.830220000000
									vertex	20.000000000000	10.000000000000	20.000000000000
						endloop						
			endfacet									
			facet	normal	0.000000000000	1.000000000000	0.000000000000					
						outer	loop					
									vertex	20.000000000000	10.000000000000	20.000000000000
									vertex	13.213940000000	10.000000000000	13.830220000000
									vertex	12.244000000000	10.000000000000	14.468160000000
						endloop						
			endfacet									
			facet	normal	0.000000000000	1.000000000000	0.000000000000					
						outer	loop					
									vertex	20.000000000000	10.000000000000	20.000000000000
									vertex	12.244000000000	10.000000000000	14.468160000000
									vertex	11.153080000000	10.000000000000	14.865220000000
						endloop						
			endfacet									
			facet	normal	0.000000000000	1.000000000000	0.000000000000					
						outer	loop					
									vertex	8.846921000000	10.000000000000	14.865220000000
									vertex	7.756004000000	10.000000000000	14.468160000000
									vertex	0.000000000000	10.000000000000	20.000000000000
						endloop						
			endfacet									
			facet	normal	0.000000000000	1.000000000000	0.000000000000					
						outer	loop					
									vertex	0.000000000000	10.000000000000	20.000000000000
									vertex	7.756004000000	10.000000000000	14.468160000000
									vertex	6.786062000000	10.000000000000	13.830220000000
						endloop						
			endfacet									
			facet	normal	0.000000000000	1.000000000000	0.000000000000					
						outer	loop					
									vertex	0.000000000000	10.000000000000	20.000000000000
									vertex	6.786062000000	10.000000000000	13.830220000000
									vertex	5.989384000000	10.000000000000	12.985790000000
						endloop						
			endfacet									
			facet	normal	0.000000000000	1.000000000000	0.000000000000					
						outer	loop					
									vertex	14.330130000000	10.000000000000	7.500000000000
									vertex	14.789950000000	10.000000000000	8.565984000000
									vertex	20.000000000000	10.000000000000	0.000000000000
						endloop						
			endfacet									
			facet	normal	0.000000000000	1.000000000000	0.000000000000					
						outer	loop					
									vertex	20.000000000000	10.000000000000	0.000000000000
									vertex	14.789950000000	10.000000000000	8.565984000000
									vertex	14.991540000000	10.000000000000	9.709275000000
						endloop						
			endfacet									
			facet	normal	0.000000000000	1.000000000000	0.000000000000					
						outer	loop					
									vertex	20.000000000000	10.000000000000	0.000000000000
									vertex	14.991540000000	10.000000000000	9.709275000000
									vertex	20.000000000000	10.000000000000	20.000000000000
						endloop						
			endfacet									
			facet	normal	0.000000000000	1.000000000000	0.000000000000					
						outer	loop					
									vertex	20.000000000000	10.000000000000	20.000000000000
									vertex	14.991540000000	10.000000000000	9.709275000000
									vertex	14.924040000000	10.000000000000	10.868240000000
						endloop						
			endfacet									
			facet	normal	0.000000000000	1.000000000000	0.000000000000					
						outer	loop					
									vertex	20.000000000000	10.000000000000	20.000000000000
									vertex	14.924040000000	10.000000000000	10.868240000000
									vertex	14.591080000000	10.000000000000	11.980400000000
						endloop						
			endfacet									
			facet	normal	0.000000000000	1.000000000000	0.000000000000					
						outer	loop					
									vertex	5.989384000000	10.000000000000	12.985790000000
									vertex	5.408919000000	10.000000000000	11.980400000000
									vertex	0.000000000000	10.000000000000	20.000000000000
						endloop						
			endfacet									
			facet	normal	0.000000000000	1.000000000000	0.000000000000					
						outer	loop					
									vertex	0.000000000000	10.000000000000	20.000000000000
									vertex	5.408919000000	10.000000000000	11.980400000000
									vertex	5.075961000000	10.000000000000	10.868240000000
						endloop						
			endfacet									
			facet	normal	0.000000000000	1.000000000000	0.000000000000					
						outer	loop					
									vertex	0.000000000000	10.000000000000	20.000000000000
									vertex	5.075961000000	10.000000000000	10.868240000000
									vertex	0.000000000000	10.000000000000	0.000000000000
						endloop						
			endfacet									
			facet	normal	0.000000000000	1.000000000000	0.000000000000					
						outer	loop					
									vertex	0.000000000000	10.000000000000	0.000000000000
									vertex	5.075961000000	10.000000000000	10.868240000000
									vertex	5.008459000000	10.000000000000	9.709275000000
						endloop						
			endfacet									
			facet	normal	0.000000000000	1.000000000000	0.000000000000					
						outer	loop					
									vertex	0.000000000000	10.000000000000	0.000000000000
									vertex	5.008459000000	10.000000000000	9.709275000000
									vertex	5.210052000000	10.000000000000	8.565984000000
						endloop						
			endfacet									
			facet	normal	0.000000000000	1.000000000000	0.000000000000					
						outer	loop					
									vertex	5.210052000000	10.000000000000	8.565984000000
									vertex	5.669873000000	10.000000000000	7.500000000000
									vertex	0.000000000000	10.000000000000	0.000000000000
						endloop						
			endfacet									
			facet	normal	0.000000000000	1.000000000000	0.000000000000					
						outer	loop					
									vertex	0.000000000000	10.000000000000	0.000000000000
									vertex	5.669873000000	10.000000000000	7.500000000000
									vertex	6.363132000000	10.000000000000	6.568791000000
						endloop						
			endfacet									
			facet	normal	0.000000000000	1.000000000000	0.000000000000					
						outer	loop					
									vertex	0.000000000000	10.000000000000	0.000000000000
									vertex	6.363132000000	10.000000000000	6.568791000000
									vertex	7.252455000000	10.000000000000	5.822561000000
						endloop						
			endfacet									
			facet	normal	0.000000000000	1.000000000000	0.000000000000					
						outer	loop					
									vertex	7.252455000000	10.000000000000	5.822561000000
									vertex	8.289900000000	10.000000000000	5.301536000000
									vertex	0.000000000000	10.000000000000	0.000000000000
						endloop						
			endfacet									
			facet	normal	0.000000000000	1.000000000000	0.000000000000					
						outer	loop					
									vertex	0.000000000000	10.000000000000	0.000000000000
									vertex	8.289900000000	10.000000000000	5.301536000000
									vertex	9.419536000000	10.000000000000	5.033808000000
						endloop						
			endfacet									
			facet	normal	0.000000000000	1.000000000000	0.000000000000					
						outer	loop					
									vertex	0.000000000000	10.000000000000	0.000000000000
									vertex	9.419536000000	10.000000000000	5.033808000000
									vertex	20.000000000000	10.000000000000	0.000000000000
						endloop						
			endfacet									
			facet	normal	0.000000000000	1.000000000000	0.000000000000					
						outer	loop					
									vertex	20.000000000000	10.000000000000	0.000000000000
									vertex	9.419536000000	10.000000000000	5.033808000000
									vertex	10.580460000000	10.000000000000	5.033808000000
						endloop						
			endfacet									
			facet	normal	0.000000000000	1.000000000000	0.000000000000					
						outer	loop					
									vertex	20.000000000000	10.000000000000	0.000000000000
									vertex	10.580460000000	10.000000000000	5.033808000000
									vertex	11.710100000000	10.000000000000	5.301536000000
						endloop						
			endfacet									
			facet	normal	0.000000000000	-1.000000000000	0.000000000000					
						outer	loop					
									vertex	20.000000000000	0.000000000000	0.000000000000
									vertex	20.000000000000	0.000000000000	20.000000000000
									vertex	0.000000000000	0.000000000000	0.000000000000
						endloop						
			endfacet									
			facet	normal	0.000000000000	-1.000000000000	0.000000000000					
						outer	loop					
									vertex	0.000000000000	0.000000000000	0.000000000000
									vertex	20.000000000000	0.000000000000	20.000000000000
									vertex	0.000000000000	0.000000000000	20.000000000000
						endloop						
			endfacet									
			facet	normal	0.077336600000	0.000000000000	-0.997005000000					
						outer	loop					
									vertex	8.846921000000	5.000000000000	14.865220000000
									vertex	10.000000000000	10.000000000000	15.000000000000
									vertex	10.000000000000	5.000000000000	15.000000000000
						endloop						
			endfacet									
			facet	normal	-0.077336600000	0.000000000000	-0.997005000000					
						outer	loop					
									vertex	10.000000000000	5.000000000000	15.000000000000
									vertex	10.000000000000	10.000000000000	15.000000000000
									vertex	11.153080000000	10.000000000000	14.865220000000
						endloop						
			endfacet									
			facet	normal	-0.154673200000	0.000000000000	-0.987965700000					
						outer	loop					
									vertex	10.000000000000	5.000000000000	15.000000000000
									vertex	11.153080000000	10.000000000000	14.865220000000
									vertex	11.153080000000	5.000000000000	14.865220000000
						endloop						
			endfacet									
			facet	normal	-0.305177200000	0.000000000000	-0.952295500000					
						outer	loop					
									vertex	11.153080000000	5.000000000000	14.865220000000
									vertex	11.153080000000	10.000000000000	14.865220000000
									vertex	12.244000000000	10.000000000000	14.468160000000
						endloop						
			endfacet									
			facet	normal	-0.378344600000	0.000000000000	-0.925664800000					
						outer	loop					
									vertex	11.153080000000	5.000000000000	14.865220000000
									vertex	12.244000000000	10.000000000000	14.468160000000
									vertex	12.244000000000	5.000000000000	14.468160000000
						endloop						
			endfacet									
			facet	normal	-0.516565600000	0.000000000000	-0.856247700000					
						outer	loop					
									vertex	12.244000000000	5.000000000000	14.468160000000
									vertex	12.244000000000	10.000000000000	14.468160000000
									vertex	13.213940000000	10.000000000000	13.830220000000
						endloop						
			endfacet									
			facet	normal	-0.581619300000	0.000000000000	-0.813461200000					
						outer	loop					
									vertex	12.244000000000	5.000000000000	14.468160000000
									vertex	13.213940000000	10.000000000000	13.830220000000
									vertex	13.213940000000	5.000000000000	13.830220000000
						endloop						
			endfacet									
			facet	normal	-0.700105800000	0.000000000000	-0.714039100000					
						outer	loop					
									vertex	13.213940000000	5.000000000000	13.830220000000
									vertex	13.213940000000	10.000000000000	13.830220000000
									vertex	14.010620000000	10.000000000000	12.985790000000
						endloop						
			endfacet									
			facet	normal	-0.753538700000	0.000000000000	-0.657403600000					
						outer	loop					
									vertex	13.213940000000	5.000000000000	13.830220000000
									vertex	14.010620000000	10.000000000000	12.985790000000
									vertex	14.010620000000	5.000000000000	12.985790000000
						endloop						
			endfacet									
			facet	normal	-0.845903000000	0.000000000000	-0.533336700000					
						outer	loop					
									vertex	14.010620000000	5.000000000000	12.985790000000
									vertex	14.010620000000	10.000000000000	12.985790000000
									vertex	14.591080000000	10.000000000000	11.980400000000
						endloop						
			endfacet									
			facet	normal	-0.884834600000	0.000000000000	-0.465905200000					
						outer	loop					
									vertex	14.010620000000	5.000000000000	12.985790000000
									vertex	14.591080000000	10.000000000000	11.980400000000
									vertex	14.591080000000	5.000000000000	11.980400000000
						endloop						
			endfacet									
			facet	normal	-0.946097600000	0.000000000000	-0.323881800000					
						outer	loop					
									vertex	14.591080000000	5.000000000000	11.980400000000
									vertex	14.591080000000	10.000000000000	11.980400000000
									vertex	14.924040000000	10.000000000000	10.868240000000
						endloop						
			endfacet									
			facet	normal	-0.968429000000	0.000000000000	-0.249289800000					
						outer	loop					
									vertex	14.591080000000	5.000000000000	11.980400000000
									vertex	14.924040000000	10.000000000000	10.868240000000
									vertex	14.924040000000	5.000000000000	10.868240000000
						endloop						
			endfacet									
			facet	normal	-0.995287700000	0.000000000000	-0.096966420000					
						outer	loop					
									vertex	14.924040000000	5.000000000000	10.868240000000
									vertex	14.924040000000	10.000000000000	10.868240000000
									vertex	14.991540000000	10.000000000000	9.709275000000
						endloop						
			endfacet									
			facet	normal	-0.999815000000	0.000000000000	-0.019235070000					
						outer	loop					
									vertex	14.924040000000	5.000000000000	10.868240000000
									vertex	14.991540000000	10.000000000000	9.709275000000
									vertex	14.991540000000	5.000000000000	9.709275000000
						endloop						
			endfacet									
			facet	normal	-0.990821500000	0.000000000000	0.135176500000					
						outer	loop					
									vertex	14.991540000000	5.000000000000	9.709275000000
									vertex	14.991540000000	10.000000000000	9.709275000000
									vertex	14.789950000000	10.000000000000	8.565984000000
						endloop						
			endfacet									
			facet	normal	-0.977300800000	0.000000000000	0.211856600000					
						outer	loop					
									vertex	14.991540000000	5.000000000000	9.709275000000
									vertex	14.789950000000	10.000000000000	8.565984000000
									vertex	14.789950000000	5.000000000000	8.565984000000
						endloop						
			endfacet									
			facet	normal	-0.932939900000	0.000000000000	0.360031900000					
						outer	loop					
									vertex	14.789950000000	5.000000000000	8.565984000000
									vertex	14.789950000000	10.000000000000	8.565984000000
									vertex	14.330130000000	10.000000000000	7.500000000000
						endloop						
			endfacet									
			facet	normal	-0.902100000000	0.000000000000	0.431527000000					
						outer	loop					
									vertex	14.789950000000	5.000000000000	8.565984000000
									vertex	14.330130000000	10.000000000000	7.500000000000
									vertex	14.330130000000	5.000000000000	7.500000000000
						endloop						
			endfacet									
			facet	normal	-0.824763400000	0.000000000000	0.565478000000					
						outer	loop					
									vertex	14.330130000000	5.000000000000	7.500000000000
									vertex	14.330130000000	10.000000000000	7.500000000000
									vertex	13.636870000000	10.000000000000	6.568791000000
						endloop						
			endfacet									
			facet	normal	-0.778266800000	0.000000000000	0.627933700000					
						outer	loop					
									vertex	14.330130000000	5.000000000000	7.500000000000
									vertex	13.636870000000	10.000000000000	6.568791000000
									vertex	13.636870000000	5.000000000000	6.568791000000
						endloop						
			endfacet									
			facet	normal	-0.672123600000	0.000000000000	0.740439000000					
						outer	loop					
									vertex	13.636870000000	5.000000000000	6.568791000000
									vertex	13.636870000000	10.000000000000	6.568791000000
									vertex	12.747550000000	10.000000000000	5.822561000000
						endloop						
			endfacet									
			facet	normal	-0.612477000000	0.000000000000	0.790488400000					
						outer	loop					
									vertex	13.636870000000	5.000000000000	6.568791000000
									vertex	12.747550000000	10.000000000000	5.822561000000
									vertex	12.747550000000	5.000000000000	5.822561000000
						endloop						
			endfacet									
			facet	normal	-0.483249500000	0.000000000000	0.875482700000					
						outer	loop					
									vertex	12.747550000000	5.000000000000	5.822561000000
									vertex	12.747550000000	10.000000000000	5.822561000000
									vertex	11.710100000000	10.000000000000	5.301536000000
						endloop						
			endfacet									
			facet	normal	-0.413668500000	0.000000000000	0.910427600000					
						outer	loop					
									vertex	12.747550000000	5.000000000000	5.822561000000
									vertex	11.710100000000	10.000000000000	5.301536000000
									vertex	11.710100000000	5.000000000000	5.301536000000
						endloop						
			endfacet									
			facet	normal	-0.268323200000	0.000000000000	0.963329000000					
						outer	loop					
									vertex	11.710100000000	5.000000000000	5.301536000000
									vertex	11.710100000000	10.000000000000	5.301536000000
									vertex	10.580460000000	10.000000000000	5.033808000000
						endloop						
			endfacet									
			facet	normal	-0.192558900000	0.000000000000	0.981285500000					
						outer	loop					
									vertex	11.710100000000	5.000000000000	5.301536000000
									vertex	10.580460000000	10.000000000000	5.033808000000
									vertex	10.580460000000	5.000000000000	5.033808000000
						endloop						
			endfacet									
			facet	normal	-0.038931540000	0.000000000000	0.999241900000					
						outer	loop					
									vertex	10.580460000000	5.000000000000	5.033808000000
									vertex	10.580460000000	10.000000000000	5.033808000000
									vertex	9.419536000000	10.000000000000	5.033808000000
						endloop						
			endfacet									
			facet	normal	0.038931540000	0.000000000000	0.999241900000					
						outer	loop					
									vertex	10.580460000000	5.000000000000	5.033808000000
									vertex	9.419536000000	10.000000000000	5.033808000000
									vertex	9.419536000000	5.000000000000	5.033808000000
						endloop						
			endfacet									
			facet	normal	0.192558900000	0.000000000000	0.981285500000					
						outer	loop					
									vertex	9.419536000000	5.000000000000	5.033808000000
									vertex	9.419536000000	10.000000000000	5.033808000000
									vertex	8.289900000000	10.000000000000	5.301536000000
						endloop						
			endfacet									
			facet	normal	0.268323200000	0.000000000000	0.963329000000					
						outer	loop					
									vertex	9.419536000000	5.000000000000	5.033808000000
									vertex	8.289900000000	10.000000000000	5.301536000000
									vertex	8.289900000000	5.000000000000	5.301536000000
						endloop						
			endfacet									
			facet	normal	0.413668500000	0.000000000000	0.910427600000					
						outer	loop					
									vertex	8.289900000000	5.000000000000	5.301536000000
									vertex	8.289900000000	10.000000000000	5.301536000000
									vertex	7.252455000000	10.000000000000	5.822561000000
						endloop						
			endfacet									
			facet	normal	0.483249500000	0.000000000000	0.875482700000					
						outer	loop					
									vertex	8.289900000000	5.000000000000	5.301536000000
									vertex	7.252455000000	10.000000000000	5.822561000000
									vertex	7.252455000000	5.000000000000	5.822561000000
						endloop						
			endfacet									
			facet	normal	0.612477000000	0.000000000000	0.790488400000					
						outer	loop					
									vertex	7.252455000000	5.000000000000	5.822561000000
									vertex	7.252455000000	10.000000000000	5.822561000000
									vertex	6.363132000000	10.000000000000	6.568791000000
						endloop						
			endfacet									
			facet	normal	0.672123600000	0.000000000000	0.740439000000					
						outer	loop					
									vertex	7.252455000000	5.000000000000	5.822561000000
									vertex	6.363132000000	10.000000000000	6.568791000000
									vertex	6.363132000000	5.000000000000	6.568791000000
						endloop						
			endfacet									
			facet	normal	0.778266800000	0.000000000000	0.627933700000					
						outer	loop					
									vertex	6.363132000000	5.000000000000	6.568791000000
									vertex	6.363132000000	10.000000000000	6.568791000000
									vertex	5.669873000000	10.000000000000	7.500000000000
						endloop						
			endfacet									
			facet	normal	0.824763400000	0.000000000000	0.565478000000					
						outer	loop					
									vertex	6.363132000000	5.000000000000	6.568791000000
									vertex	5.669873000000	10.000000000000	7.500000000000
									vertex	5.669873000000	5.000000000000	7.500000000000
						endloop						
			endfacet									
			facet	normal	0.902100000000	0.000000000000	0.431527000000					
						outer	loop					
									vertex	5.669873000000	5.000000000000	7.500000000000
									vertex	5.669873000000	10.000000000000	7.500000000000
									vertex	5.210052000000	10.000000000000	8.565984000000
						endloop						
			endfacet									
			facet	normal	0.932939900000	0.000000000000	0.360031900000					
						outer	loop					
									vertex	5.669873000000	5.000000000000	7.500000000000
									vertex	5.210052000000	10.000000000000	8.565984000000
									vertex	5.210052000000	5.000000000000	8.565984000000
						endloop						
			endfacet									
			facet	normal	0.977300800000	0.000000000000	0.211856600000					
						outer	loop					
									vertex	5.210052000000	5.000000000000	8.565984000000
									vertex	5.210052000000	10.000000000000	8.565984000000
									vertex	5.008459000000	10.000000000000	9.709275000000
						endloop						
			endfacet									
			facet	normal	0.990821500000	0.000000000000	0.135176500000					
						outer	loop					
									vertex	5.210052000000	5.000000000000	8.565984000000
									vertex	5.008459000000	10.000000000000	9.709275000000
									vertex	5.008459000000	5.000000000000	9.709275000000
						endloop						
			endfacet									
			facet	normal	0.999815000000	0.000000000000	-0.019235070000					
						outer	loop					
									vertex	5.008459000000	5.000000000000	9.709275000000
									vertex	5.008459000000	10.000000000000	9.709275000000
									vertex	5.075961000000	10.000000000000	10.868240000000
						endloop						
			endfacet									
			facet	normal	0.995287700000	0.000000000000	-0.096966420000					
						outer	loop					
									vertex	5.008459000000	5.000000000000	9.709275000000
									vertex	5.075961000000	10.000000000000	10.868240000000
									vertex	5.075961000000	5.000000000000	10.868240000000
						endloop						
			endfacet									
			facet	normal	0.968429000000	0.000000000000	-0.249289800000					
						outer	loop					
									vertex	5.075961000000	5.000000000000	10.868240000000
									vertex	5.075961000000	10.000000000000	10.868240000000
									vertex	5.408919000000	10.000000000000	11.980400000000
						endloop						
			endfacet									
			facet	normal	0.946097600000	0.000000000000	-0.323881800000					
						outer	loop					
									vertex	5.075961000000	5.000000000000	10.868240000000
									vertex	5.408919000000	10.000000000000	11.980400000000
									vertex	5.408919000000	5.000000000000	11.980400000000
						endloop						
			endfacet									
			facet	normal	0.884834600000	0.000000000000	-0.465905200000					
						outer	loop					
									vertex	5.408919000000	5.000000000000	11.980400000000
									vertex	5.408919000000	10.000000000000	11.980400000000
									vertex	5.989384000000	10.000000000000	12.985790000000
						endloop						
			endfacet									
			facet	normal	0.845903000000	0.000000000000	-0.533336700000					
						outer	loop					
									vertex	5.408919000000	5.000000000000	11.980400000000
									vertex	5.989384000000	10.000000000000	12.985790000000
									vertex	5.989384000000	5.000000000000	12.985790000000
						endloop						
			endfacet									
			facet	normal	0.753538700000	0.000000000000	-0.657403600000					
						outer	loop					
									vertex	5.989384000000	5.000000000000	12.985790000000
									vertex	5.989384000000	10.000000000000	12.985790000000
									vertex	6.786062000000	10.000000000000	13.830220000000
						endloop						
			endfacet									
			facet	normal	0.700105800000	0.000000000000	-0.714039100000					
						outer	loop					
									vertex	5.989384000000	5.000000000000	12.985790000000
									vertex	6.786062000000	10.000000000000	13.830220000000
									vertex	6.786062000000	5.000000000000	13.830220000000
						endloop						
			endfacet									
			facet	normal	0.581619200000	0.000000000000	-0.813461200000					
						outer	loop					
									vertex	6.786062000000	5.000000000000	13.830220000000
									vertex	6.786062000000	10.000000000000	13.830220000000
									vertex	7.756004000000	10.000000000000	14.468160000000
						endloop						
			endfacet									
			facet	normal	0.516565600000	0.000000000000	-0.856247700000					
						outer	loop					
									vertex	6.786062000000	5.000000000000	13.830220000000
									vertex	7.756004000000	10.000000000000	14.468160000000
									vertex	7.756004000000	5.000000000000	14.468160000000
						endloop						
			endfacet									
			facet	normal	0.378344600000	0.000000000000	-0.925664800000					
						outer	loop					
									vertex	7.756004000000	5.000000000000	14.468160000000
									vertex	7.756004000000	10.000000000000	14.468160000000
									vertex	8.846921000000	10.000000000000	14.865220000000
						endloop						
			endfacet									
			facet	normal	0.305177100000	0.000000000000	-0.952295500000					
						outer	loop					
									vertex	7.756004000000	5.000000000000	14.468160000000
									vertex	8.846921000000	10.000000000000	14.865220000000
									vertex	8.846921000000	5.000000000000	14.865220000000
						endloop						
			endfacet									
			facet	normal	0.154673200000	0.000000000000	-0.987965700000					
						outer	loop					
									vertex	8.846921000000	5.000000000000	14.865220000000
									vertex	8.846921000000	10.000000000000	14.865220000000
									vertex	10.000000000000	10.000000000000	15.000000000000
						endloop						
			endfacet									
			facet	normal	0.000000000000	1.000000000000	0.000000000000					
						outer	loop					
									vertex	5.075961000000	5.000000000000	10.868240000000
									vertex	5.408919000000	5.000000000000	11.980400000000
									vertex	14.789950000000	5.000000000000	8.565984000000
						endloop						
			endfacet									
			facet	normal	0.000000000000	1.000000000000	0.000000000000					
						outer	loop					
									vertex	14.789950000000	5.000000000000	8.565984000000
									vertex	5.408919000000	5.000000000000	11.980400000000
									vertex	5.989384000000	5.000000000000	12.985790000000
						endloop						
			endfacet									
			facet	normal	0.000000000000	1.000000000000	0.000000000000					
						outer	loop					
									vertex	14.789950000000	5.000000000000	8.565984000000
									vertex	14.330130000000	5.000000000000	7.500000000000
									vertex	5.075961000000	5.000000000000	10.868240000000
						endloop						
			endfacet									
			facet	normal	0.000000000000	1.000000000000	0.000000000000					
						outer	loop					
									vertex	5.075961000000	5.000000000000	10.868240000000
									vertex	14.330130000000	5.000000000000	7.500000000000
									vertex	13.636870000000	5.000000000000	6.568791000000
						endloop						
			endfacet									
			facet	normal	0.000000000000	1.000000000000	0.000000000000					
						outer	loop					
									vertex	5.075961000000	5.000000000000	10.868240000000
									vertex	13.636870000000	5.000000000000	6.568791000000
									vertex	12.747550000000	5.000000000000	5.822561000000
						endloop						
			endfacet									
			facet	normal	0.000000000000	1.000000000000	0.000000000000					
						outer	loop					
									vertex	5.989384000000	5.000000000000	12.985790000000
									vertex	6.786062000000	5.000000000000	13.830220000000
									vertex	13.213940000000	5.000000000000	13.830220000000
						endloop						
			endfacet									
			facet	normal	0.000000000000	1.000000000000	0.000000000000					
						outer	loop					
									vertex	13.213940000000	5.000000000000	13.830220000000
									vertex	6.786062000000	5.000000000000	13.830220000000
									vertex	7.756004000000	5.000000000000	14.468160000000
						endloop						
			endfacet									
			facet	normal	0.000000000000	1.000000000000	0.000000000000					
						outer	loop					
									vertex	14.991540000000	5.000000000000	9.709275000000
									vertex	14.789950000000	5.000000000000	8.565984000000
									vertex	14.924040000000	5.000000000000	10.868240000000
						endloop						
			endfacet									
			facet	normal	0.000000000000	1.000000000000	0.000000000000					
						outer	loop					
									vertex	14.924040000000	5.000000000000	10.868240000000
									vertex	14.789950000000	5.000000000000	8.565984000000
									vertex	5.989384000000	5.000000000000	12.985790000000
						endloop						
			endfacet									
			facet	normal	0.000000000000	1.000000000000	0.000000000000					
						outer	loop					
									vertex	14.924040000000	5.000000000000	10.868240000000
									vertex	5.989384000000	5.000000000000	12.985790000000
									vertex	14.591080000000	5.000000000000	11.980400000000
						endloop						
			endfacet									
			facet	normal	0.000000000000	1.000000000000	0.000000000000					
						outer	loop					
									vertex	14.591080000000	5.000000000000	11.980400000000
									vertex	5.989384000000	5.000000000000	12.985790000000
									vertex	13.213940000000	5.000000000000	13.830220000000
						endloop						
			endfacet									
			facet	normal	0.000000000000	1.000000000000	0.000000000000					
						outer	loop					
									vertex	14.591080000000	5.000000000000	11.980400000000
									vertex	13.213940000000	5.000000000000	13.830220000000
									vertex	14.010620000000	5.000000000000	12.985790000000
						endloop						
			endfacet									
			facet	normal	0.000000000000	1.000000000000	0.000000000000					
						outer	loop					
									vertex	6.363132000000	5.000000000000	6.568791000000
									vertex	5.669873000000	5.000000000000	7.500000000000
									vertex	7.252455000000	5.000000000000	5.822561000000
						endloop						
			endfacet									
			facet	normal	0.000000000000	1.000000000000	0.000000000000					
						outer	loop					
									vertex	7.252455000000	5.000000000000	5.822561000000
									vertex	5.669873000000	5.000000000000	7.500000000000
									vertex	5.210052000000	5.000000000000	8.565984000000
						endloop						
			endfacet									
			facet	normal	0.000000000000	1.000000000000	0.000000000000					
						outer	loop					
									vertex	7.252455000000	5.000000000000	5.822561000000
									vertex	5.210052000000	5.000000000000	8.565984000000
									vertex	8.289900000000	5.000000000000	5.301536000000
						endloop						
			endfacet									
			facet	normal	0.000000000000	1.000000000000	0.000000000000					
						outer	loop					
									vertex	8.289900000000	5.000000000000	5.301536000000
									vertex	5.210052000000	5.000000000000	8.565984000000
									vertex	5.008459000000	5.000000000000	9.709275000000
						endloop						
			endfacet									
			facet	normal	0.000000000000	1.000000000000	0.000000000000					
						outer	loop					
									vertex	8.289900000000	5.000000000000	5.301536000000
									vertex	5.008459000000	5.000000000000	9.709275000000
									vertex	9.419536000000	5.000000000000	5.033808000000
						endloop						
			endfacet									
			facet	normal	0.000000000000	1.000000000000	0.000000000000					
						outer	loop					
									vertex	9.419536000000	5.000000000000	5.033808000000
									vertex	5.008459000000	5.000000000000	9.709275000000
									vertex	5.075961000000	5.000000000000	10.868240000000
						endloop						
			endfacet									
			facet	normal	0.000000000000	1.000000000000	0.000000000000					
						outer	loop					
									vertex	9.419536000000	5.000000000000	5.033808000000
									vertex	5.075961000000	5.000000000000	10.868240000000
									vertex	10.580460000000	5.000000000000	5.033808000000
						endloop						
			endfacet									
			facet	normal	0.000000000000	1.000000000000	0.000000000000					
						outer	loop					
									vertex	10.580460000000	5.000000000000	5.033808000000
									vertex	5.075961000000	5.000000000000	10.868240000000
									vertex	12.747550000000	5.000000000000	5.822561000000
						endloop						
			endfacet									
			facet	normal	0.000000000000	1.000000000000	0.000000000000					
						outer	loop					
									vertex	10.580460000000	5.000000000000	5.033808000000
									vertex	12.747550000000	5.000000000000	5.822561000000
									vertex	11.710100000000	5.000000000000	5.301536000000
						endloop						
			endfacet									
			facet	normal	0.000000000000	1.000000000000	0.000000000000					
						outer	loop					
									vertex	11.153080000000	5.000000000000	14.865220000000
									vertex	12.244000000000	5.000000000000	14.468160000000
									vertex	10.000000000000	5.000000000000	15.000000000000
						endloop						
			endfacet									
			facet	normal	0.000000000000	1.000000000000	0.000000000000					
						outer	loop					
									vertex	10.000000000000	5.000000000000	15.000000000000
									vertex	12.244000000000	5.000000000000	14.468160000000
									vertex	13.213940000000	5.000000000000	13.830220000000
						endloop						
			endfacet									
			facet	normal	0.000000000000	1.000000000000	0.000000000000					
						outer	loop					
									vertex	10.000000000000	5.000000000000	15.000000000000
									vertex	13.213940000000	5.000000000000	13.830220000000
									vertex	8.846921000000	5.000000000000	14.865220000000
						endloop						
			endfacet									
			facet	normal	0.000000000000	1.000000000000	0.000000000000					
						outer	loop					
									vertex	8.846921000000	5.000000000000	14.865220000000
									vertex	13.213940000000	5.000000000000	13.830220000000
									vertex	7.756004000000	5.000000000000	14.468160000000
						endloop						
			endfacet									
endsolid												
