solid	SlantedSideTest											
			facet	normal	0.000000000000	1.000000000000	0.000000000000					
						outer	loop					
									vertex	10.000000000000	10.000000000000	8.500000000000
									vertex	0.000000000000	10.000000000000	8.500000000000
									vertex	10.000000000000	10.000000000000	11.500000000000
						endloop						
			endfacet									
			facet	normal	0.000000000000	1.000000000000	0.000000000000					
						outer	loop					
									vertex	10.000000000000	10.000000000000	11.500000000000
									vertex	0.000000000000	10.000000000000	8.500000000000
									vertex	0.000000000000	10.000000000000	11.500000000000
						endloop						
			endfacet									
			facet	normal	-1.000000000000	0.000000000000	0.000000000000					
						outer	loop					
									vertex	0.000000000000	0.000000000000	0.000000000000
									vertex	0.000000000000	0.000000000000	20.000000000000
									vertex	0.000000000000	1.500000000000	20.000000000000
						endloop						
			endfacet									
			facet	normal	-1.000000000000	0.000000000000	0.000000000000					
						outer	loop					
									vertex	0.000000000000	10.000000000000	8.500000000000
									vertex	0.000000000000	1.500000000000	0.000000000000
									vertex	0.000000000000	10.000000000000	11.500000000000
						endloop						
			endfacet									
			facet	normal	-1.000000000000	0.000000000000	0.000000000000					
						outer	loop					
									vertex	0.000000000000	10.000000000000	11.500000000000
									vertex	0.000000000000	1.500000000000	0.000000000000
									vertex	0.000000000000	0.000000000000	0.000000000000
						endloop						
			endfacet									
			facet	normal	-1.000000000000	0.000000000000	0.000000000000					
						outer	loop					
									vertex	0.000000000000	10.000000000000	11.500000000000
									vertex	0.000000000000	0.000000000000	0.000000000000
									vertex	0.000000000000	9.870867000000	12.976010000000
						endloop						
			endfacet									
			facet	normal	-1.000000000000	0.000000000000	0.000000000000					
						outer	loop					
									vertex	0.000000000000	9.870867000000	12.976010000000
									vertex	0.000000000000	0.000000000000	0.000000000000
									vertex	0.000000000000	1.500000000000	20.000000000000
						endloop						
			endfacet									
			facet	normal	-1.000000000000	0.000000000000	0.000000000000					
						outer	loop					
									vertex	0.000000000000	9.870867000000	12.976010000000
									vertex	0.000000000000	1.500000000000	20.000000000000
									vertex	0.000000000000	9.487388000000	14.407170000000
						endloop						
			endfacet									
			facet	normal	-1.000000000000	0.000000000000	0.000000000000					
						outer	loop					
									vertex	0.000000000000	9.487388000000	14.407170000000
									vertex	0.000000000000	1.500000000000	20.000000000000
									vertex	0.000000000000	2.976010000000	19.870870000000
						endloop						
			endfacet									
			facet	normal	-1.000000000000	0.000000000000	0.000000000000					
						outer	loop					
									vertex	0.000000000000	9.487388000000	14.407170000000
									vertex	0.000000000000	2.976010000000	19.870870000000
									vertex	0.000000000000	8.861216000000	15.750000000000
						endloop						
			endfacet									
			facet	normal	-1.000000000000	0.000000000000	0.000000000000					
						outer	loop					
									vertex	0.000000000000	8.861216000000	15.750000000000
									vertex	0.000000000000	2.976010000000	19.870870000000
									vertex	0.000000000000	4.407171000000	19.487390000000
						endloop						
			endfacet									
			facet	normal	-1.000000000000	0.000000000000	0.000000000000					
						outer	loop					
									vertex	0.000000000000	8.861216000000	15.750000000000
									vertex	0.000000000000	4.407171000000	19.487390000000
									vertex	0.000000000000	8.011377000000	16.963690000000
						endloop						
			endfacet									
			facet	normal	-1.000000000000	0.000000000000	0.000000000000					
						outer	loop					
									vertex	0.000000000000	8.011377000000	16.963690000000
									vertex	0.000000000000	4.407171000000	19.487390000000
									vertex	0.000000000000	5.750000000000	18.861220000000
						endloop						
			endfacet									
			facet	normal	-1.000000000000	0.000000000000	0.000000000000					
						outer	loop					
									vertex	0.000000000000	8.011377000000	16.963690000000
									vertex	0.000000000000	5.750000000000	18.861220000000
									vertex	0.000000000000	6.963695000000	18.011380000000
						endloop						
			endfacet									
			facet	normal	0.000000000000	0.000000000000	1.000000000000					
						outer	loop					
									vertex	18.500000000000	1.500000000000	20.000000000000
									vertex	0.000000000000	1.500000000000	20.000000000000
									vertex	20.000000000000	0.000000000000	20.000000000000
						endloop						
			endfacet									
			facet	normal	0.000000000000	0.000000000000	1.000000000000					
						outer	loop					
									vertex	20.000000000000	0.000000000000	20.000000000000
									vertex	0.000000000000	1.500000000000	20.000000000000
									vertex	0.000000000000	0.000000000000	20.000000000000
						endloop						
			endfacet									
			facet	normal	0.000000000000	0.000000000000	-1.000000000000					
						outer	loop					
									vertex	20.000000000000	0.000000000000	0.000000000000
									vertex	0.000000000000	0.000000000000	0.000000000000
									vertex	18.500000000000	1.500000000000	0.000000000000
						endloop						
			endfacet									
			facet	normal	0.000000000000	0.000000000000	-1.000000000000					
						outer	loop					
									vertex	18.500000000000	1.500000000000	0.000000000000
									vertex	0.000000000000	0.000000000000	0.000000000000
									vertex	0.000000000000	1.500000000000	0.000000000000
						endloop						
			endfacet									
			facet	normal	0.000000000000	-1.000000000000	0.000000000000					
						outer	loop					
									vertex	20.000000000000	0.000000000000	0.000000000000
									vertex	20.000000000000	0.000000000000	20.000000000000
									vertex	0.000000000000	0.000000000000	0.000000000000
						endloop						
			endfacet									
			facet	normal	0.000000000000	-1.000000000000	0.000000000000					
						outer	loop					
									vertex	0.000000000000	0.000000000000	0.000000000000
									vertex	20.000000000000	0.000000000000	20.000000000000
									vertex	0.000000000000	0.000000000000	20.000000000000
						endloop						
			endfacet									
			facet	normal	0.000000000000	0.707106800000	-0.707106800000					
						outer	loop					
									vertex	18.500000000000	1.500000000000	0.000000000000
									vertex	0.000000000000	1.500000000000	0.000000000000
									vertex	10.000000000000	10.000000000000	8.500000000000
						endloop						
			endfacet									
			facet	normal	0.000000000000	0.707106800000	-0.707106800000					
						outer	loop					
									vertex	10.000000000000	10.000000000000	8.500000000000
									vertex	0.000000000000	1.500000000000	0.000000000000
									vertex	0.000000000000	10.000000000000	8.500000000000
						endloop						
			endfacet									
			facet	normal	0.000000000000	0.999954200000	0.009572032000					
						outer	loop					
									vertex	10.000000000000	10.000000000000	11.500000000000
									vertex	0.000000000000	10.000000000000	11.500000000000
									vertex	10.003500000000	9.996495000000	11.744060000000
						endloop						
			endfacet									
			facet	normal	0.000000000000	0.997709000000	0.067651230000					
						outer	loop					
									vertex	10.003500000000	9.996495000000	11.744060000000
									vertex	0.000000000000	10.000000000000	11.500000000000
									vertex	0.000000000000	9.870867000000	12.976010000000
						endloop						
			endfacet									
			facet	normal	0.000000000000	0.941051500000	0.338263300000					
						outer	loop					
									vertex	10.519220000000	9.480779000000	14.404290000000
									vertex	10.478490000000	9.521507000000	14.311660000000
									vertex	0.000000000000	9.487388000000	14.407170000000
						endloop						
			endfacet									
			facet	normal	0.000000000000	0.958312900000	0.285720600000					
						outer	loop					
									vertex	0.000000000000	9.487388000000	14.407170000000
									vertex	10.478490000000	9.521507000000	14.311660000000
									vertex	10.141820000000	9.858185000000	13.046210000000
						endloop						
			endfacet									
			facet	normal	0.000000000000	0.972410100000	0.233277900000					
						outer	loop					
									vertex	0.000000000000	9.487388000000	14.407170000000
									vertex	10.141820000000	9.858185000000	13.046210000000
									vertex	0.000000000000	9.870867000000	12.976010000000
						endloop						
			endfacet									
			facet	normal	0.000000000000	0.984315700000	0.176416200000					
						outer	loop					
									vertex	0.000000000000	9.870867000000	12.976010000000
									vertex	10.141820000000	9.858185000000	13.046210000000
									vertex	10.134300000000	9.865699000000	12.975460000000
						endloop						
			endfacet									
			facet	normal	0.000000000000	0.992075000000	0.125647100000					
						outer	loop					
									vertex	0.000000000000	9.870867000000	12.976010000000
									vertex	10.134300000000	9.865699000000	12.975460000000
									vertex	10.003500000000	9.996495000000	11.744060000000
						endloop						
			endfacet									
			facet	normal	0.000000000000	0.922442400000	0.386134800000					
						outer	loop					
									vertex	10.519220000000	9.480779000000	14.404290000000
									vertex	0.000000000000	9.487388000000	14.407170000000
									vertex	11.005540000000	8.994458000000	15.510370000000
						endloop						
			endfacet									
			facet	normal	0.000000000000	0.898387100000	0.439204700000					
						outer	loop					
									vertex	11.005540000000	8.994458000000	15.510370000000
									vertex	0.000000000000	9.487388000000	14.407170000000
									vertex	0.000000000000	8.861216000000	15.750000000000
						endloop						
			endfacet									
			facet	normal	0.000000000000	0.871364700000	0.490636000000					
						outer	loop					
									vertex	11.005540000000	8.994458000000	15.510370000000
									vertex	0.000000000000	8.861216000000	15.750000000000
									vertex	11.152890000000	8.847105000000	15.741050000000
						endloop						
			endfacet									
			facet	normal	0.000000000000	0.845017100000	0.534739300000					
						outer	loop					
									vertex	11.152890000000	8.847105000000	15.741050000000
									vertex	0.000000000000	8.861216000000	15.750000000000
									vertex	11.710460000000	8.289542000000	16.613910000000
						endloop						
			endfacet									
			facet	normal	0.000000000000	0.812449300000	0.583031800000					
						outer	loop					
									vertex	11.710460000000	8.289542000000	16.613910000000
									vertex	0.000000000000	8.861216000000	15.750000000000
									vertex	0.000000000000	8.011377000000	16.963690000000
						endloop						
			endfacet									
			facet	normal	0.000000000000	0.777204000000	0.629248800000					
						outer	loop					
									vertex	11.710460000000	8.289542000000	16.613910000000
									vertex	0.000000000000	8.011377000000	16.963690000000
									vertex	12.005680000000	7.994316000000	16.948720000000
						endloop						
			endfacet									
			facet	normal	0.000000000000	0.743856500000	0.668339400000					
						outer	loop					
									vertex	12.005680000000	7.994316000000	16.948720000000
									vertex	0.000000000000	8.011377000000	16.963690000000
									vertex	12.576510000000	7.423490000000	17.596090000000
						endloop						
			endfacet									
			facet	normal	0.000000000000	0.703705700000	0.710491600000					
						outer	loop					
									vertex	12.576510000000	7.423490000000	17.596090000000
									vertex	0.000000000000	8.011377000000	16.963690000000
									vertex	0.000000000000	6.963695000000	18.011380000000
						endloop						
			endfacet									
			facet	normal	0.000000000000	0.661212000000	0.750199100000					
						outer	loop					
									vertex	12.576510000000	7.423490000000	17.596090000000
									vertex	0.000000000000	6.963695000000	18.011380000000
									vertex	13.052420000000	6.947581000000	17.992030000000
						endloop						
			endfacet									
			facet	normal	0.000000000000	0.621802300000	0.783174200000					
						outer	loop					
									vertex	13.052420000000	6.947581000000	17.992030000000
									vertex	0.000000000000	6.963695000000	18.011380000000
									vertex	13.583150000000	6.416855000000	18.433580000000
						endloop						
			endfacet									
			facet	normal	0.000000000000	0.575208500000	0.818006800000					
						outer	loop					
									vertex	13.583150000000	6.416855000000	18.433580000000
									vertex	0.000000000000	6.963695000000	18.011380000000
									vertex	0.000000000000	5.750000000000	18.861220000000
						endloop						
			endfacet									
			facet	normal	0.000000000000	0.526648500000	0.850083100000					
						outer	loop					
									vertex	13.583150000000	6.416855000000	18.433580000000
									vertex	0.000000000000	5.750000000000	18.861220000000
									vertex	14.262360000000	5.737637000000	18.840470000000
						endloop						
			endfacet									
			facet	normal	0.000000000000	0.482286900000	0.876013300000					
						outer	loop					
									vertex	14.262360000000	5.737637000000	18.840470000000
									vertex	0.000000000000	5.750000000000	18.861220000000
									vertex	14.706470000000	5.293529000000	19.106520000000
						endloop						
			endfacet									
			facet	normal	0.000000000000	0.430564600000	0.902559800000					
						outer	loop					
									vertex	14.706470000000	5.293529000000	19.106520000000
									vertex	0.000000000000	5.750000000000	18.861220000000
									vertex	0.000000000000	4.407171000000	19.487390000000
						endloop						
			endfacet									
			facet	normal	0.000000000000	0.377297600000	0.926092000000					
						outer	loop					
									vertex	14.706470000000	5.293529000000	19.106520000000
									vertex	0.000000000000	4.407171000000	19.487390000000
									vertex	15.600100000000	4.399900000000	19.469180000000
						endloop						
			endfacet									
			facet	normal	0.000000000000	0.329234600000	0.944248200000					
						outer	loop					
									vertex	15.600100000000	4.399900000000	19.469180000000
									vertex	0.000000000000	4.407171000000	19.487390000000
									vertex	15.919830000000	4.080171000000	19.598930000000
						endloop						
			endfacet									
			facet	normal	0.000000000000	0.273833400000	0.961777200000					
						outer	loop					
									vertex	15.919830000000	4.080171000000	19.598930000000
									vertex	0.000000000000	4.407171000000	19.487390000000
									vertex	0.000000000000	2.976010000000	19.870870000000
						endloop						
			endfacet									
			facet	normal	0.000000000000	0.217360300000	0.976091400000					
						outer	loop					
									vertex	15.919830000000	4.080171000000	19.598930000000
									vertex	0.000000000000	2.976010000000	19.870870000000
									vertex	17.026540000000	2.973464000000	19.859590000000
						endloop						
			endfacet									
			facet	normal	0.000000000000	0.166951000000	0.985965200000					
						outer	loop					
									vertex	17.026540000000	2.973464000000	19.859590000000
									vertex	0.000000000000	2.976010000000	19.870870000000
									vertex	17.194420000000	2.805578000000	19.899130000000
						endloop						
			endfacet									
			facet	normal	0.000000000000	0.109413800000	0.993996300000					
						outer	loop					
									vertex	17.194420000000	2.805578000000	19.899130000000
									vertex	0.000000000000	2.976010000000	19.870870000000
									vertex	0.000000000000	1.500000000000	20.000000000000
						endloop						
			endfacet									
			facet	normal	0.000000000000	0.051334700000	0.998681500000					
						outer	loop					
									vertex	17.194420000000	2.805578000000	19.899130000000
									vertex	0.000000000000	1.500000000000	20.000000000000
									vertex	18.500000000000	1.500000000000	20.000000000000
						endloop						
			endfacet									
			facet	normal	0.707106800000	0.707106800000	0.000000000000					
						outer	loop					
									vertex	18.500000000000	1.500000000000	20.000000000000
									vertex	20.000000000000	0.000000000000	20.000000000000
									vertex	20.000000000000	0.000000000000	0.000000000000
						endloop						
			endfacet									
			facet	normal	0.707106800000	0.707106800000	0.000000000000					
						outer	loop					
									vertex	10.000000000000	10.000000000000	11.500000000000
									vertex	10.003500000000	9.996495000000	11.744060000000
									vertex	10.134300000000	9.865699000000	12.975460000000
						endloop						
			endfacet									
			facet	normal	0.707106800000	0.707106800000	0.000000000000					
						outer	loop					
									vertex	17.026540000000	2.973464000000	19.859590000000
									vertex	17.194420000000	2.805578000000	19.899130000000
									vertex	18.500000000000	1.500000000000	20.000000000000
						endloop						
			endfacet									
			facet	normal	0.707106800000	0.707106800000	0.000000000000					
						outer	loop					
									vertex	20.000000000000	0.000000000000	0.000000000000
									vertex	18.500000000000	1.500000000000	0.000000000000
									vertex	10.000000000000	10.000000000000	8.500000000000
						endloop						
			endfacet									
			facet	normal	0.707106800000	0.707106800000	0.000000000000					
						outer	loop					
									vertex	13.052420000000	6.947581000000	17.992030000000
									vertex	13.583150000000	6.416855000000	18.433580000000
									vertex	14.262360000000	5.737637000000	18.840470000000
						endloop						
			endfacet									
			facet	normal	0.707106800000	0.707106800000	0.000000000000					
						outer	loop					
									vertex	18.500000000000	1.500000000000	20.000000000000
									vertex	20.000000000000	0.000000000000	0.000000000000
									vertex	17.026540000000	2.973464000000	19.859590000000
						endloop						
			endfacet									
			facet	normal	0.707106800000	0.707106800000	0.000000000000					
						outer	loop					
									vertex	17.026540000000	2.973464000000	19.859590000000
									vertex	20.000000000000	0.000000000000	0.000000000000
									vertex	15.600100000000	4.399900000000	19.469180000000
						endloop						
			endfacet									
			facet	normal	0.707106800000	0.707106800000	0.000000000000					
						outer	loop					
									vertex	17.026540000000	2.973464000000	19.859590000000
									vertex	15.600100000000	4.399900000000	19.469180000000
									vertex	15.919830000000	4.080171000000	19.598930000000
						endloop						
			endfacet									
			facet	normal	0.707106800000	0.707106800000	0.000000000000					
						outer	loop					
									vertex	10.519220000000	9.480779000000	14.404290000000
									vertex	11.005540000000	8.994458000000	15.510370000000
									vertex	11.152890000000	8.847105000000	15.741050000000
						endloop						
			endfacet									
			facet	normal	0.707106800000	0.707106800000	0.000000000000					
						outer	loop					
									vertex	10.478490000000	9.521507000000	14.311660000000
									vertex	10.519220000000	9.480779000000	14.404290000000
									vertex	20.000000000000	0.000000000000	0.000000000000
						endloop						
			endfacet									
			facet	normal	0.707106800000	0.707106800000	0.000000000000					
						outer	loop					
									vertex	10.141820000000	9.858185000000	13.046210000000
									vertex	10.478490000000	9.521507000000	14.311660000000
									vertex	10.134300000000	9.865699000000	12.975460000000
						endloop						
			endfacet									
			facet	normal	0.707106800000	0.707106800000	0.000000000000					
						outer	loop					
									vertex	10.134300000000	9.865699000000	12.975460000000
									vertex	10.478490000000	9.521507000000	14.311660000000
									vertex	20.000000000000	0.000000000000	0.000000000000
						endloop						
			endfacet									
			facet	normal	0.707106800000	0.707106800000	0.000000000000					
						outer	loop					
									vertex	10.134300000000	9.865699000000	12.975460000000
									vertex	20.000000000000	0.000000000000	0.000000000000
									vertex	10.000000000000	10.000000000000	11.500000000000
						endloop						
			endfacet									
			facet	normal	0.707106800000	0.707106800000	0.000000000000					
						outer	loop					
									vertex	10.000000000000	10.000000000000	11.500000000000
									vertex	20.000000000000	0.000000000000	0.000000000000
									vertex	10.000000000000	10.000000000000	8.500000000000
						endloop						
			endfacet									
			facet	normal	0.707106800000	0.707106800000	0.000000000000					
						outer	loop					
									vertex	10.519220000000	9.480779000000	14.404290000000
									vertex	11.152890000000	8.847105000000	15.741050000000
									vertex	20.000000000000	0.000000000000	0.000000000000
						endloop						
			endfacet									
			facet	normal	0.707106800000	0.707106800000	0.000000000000					
						outer	loop					
									vertex	20.000000000000	0.000000000000	0.000000000000
									vertex	11.152890000000	8.847105000000	15.741050000000
									vertex	11.710460000000	8.289542000000	16.613910000000
						endloop						
			endfacet									
			facet	normal	0.707106800000	0.707106800000	0.000000000000					
						outer	loop					
									vertex	20.000000000000	0.000000000000	0.000000000000
									vertex	11.710460000000	8.289542000000	16.613910000000
									vertex	12.005680000000	7.994316000000	16.948720000000
						endloop						
			endfacet									
			facet	normal	0.707106800000	0.707106800000	0.000000000000					
						outer	loop					
									vertex	14.706470000000	5.293529000000	19.106520000000
									vertex	15.600100000000	4.399900000000	19.469180000000
									vertex	14.262360000000	5.737637000000	18.840470000000
						endloop						
			endfacet									
			facet	normal	0.707106800000	0.707106800000	0.000000000000					
						outer	loop					
									vertex	14.262360000000	5.737637000000	18.840470000000
									vertex	15.600100000000	4.399900000000	19.469180000000
									vertex	20.000000000000	0.000000000000	0.000000000000
						endloop						
			endfacet									
			facet	normal	0.707106800000	0.707106800000	0.000000000000					
						outer	loop					
									vertex	14.262360000000	5.737637000000	18.840470000000
									vertex	20.000000000000	0.000000000000	0.000000000000
									vertex	13.052420000000	6.947581000000	17.992030000000
						endloop						
			endfacet									
			facet	normal	0.707106800000	0.707106800000	0.000000000000					
						outer	loop					
									vertex	13.052420000000	6.947581000000	17.992030000000
									vertex	20.000000000000	0.000000000000	0.000000000000
									vertex	12.005680000000	7.994316000000	16.948720000000
						endloop						
			endfacet									
			facet	normal	0.707106800000	0.707106800000	0.000000000000					
						outer	loop					
									vertex	13.052420000000	6.947581000000	17.992030000000
									vertex	12.005680000000	7.994316000000	16.948720000000
									vertex	12.576510000000	7.423490000000	17.596090000000
						endloop						
			endfacet									
endsolid												
