**ABCDEFGHIJKLMNOPQRSTUVWXYZabcdefghijklmnopqrstuvwxyz**************************
**PARASOLID !"#$%&'()*+,-./:;<=>?@[\]^_`{|}~0123456789**************************
**PART1;
MC=AMD64;
MC_MODEL=Intel64 Family 6 Model 23 Stepping 6, GenuineIntel;
MC_ID=unknown;
OS=Windows_NT;
OS_RELEASE=unknown;
FRU=Parasolid Version 21.0, build 296,  4-10-2010;
APPL=SolidWorks 2010-2010164;
SITE=;
USER=unknown;
FORMAT=text;
GUISE=transmit;
KEY=makeProjectedPlanarWire;
FILE=makeProjectedPlanarWire.x_t;
DATE=Tue Nov 29 12:15:07 2011;
**PART2;
SCH=SCH_2100296_20000;
USFLD_SIZE=0;
**PART3;
**END_OF_HEADER*****************************************************************
T51 : TRANSMIT FILE created by modeller version 210029623 SCH_2100296_20000_1300
6186 0 12 27 CCCCCCCCCCCCCCCCCCCCCCCA16 index_map_offset0 0 1 dA9 index_map82 0
 A17 node_id_index_map82 0 A20 schema_embedding_map82 0 Z1 246 0 0 0 0 0 0 1e3 1
e-8 0 2 0 1 0 3 1 3 4 5 6 7 8 9 0 0 0 0 13 255 3 124 0 1 0 10 0 0 7 10 50 255 4
 2 0 10 0 0 0 +.03685 -.0168793852757353 .0178 0 0 1 1 0 0 30 255 5 81 0 8 11 0
 0 +.05185 -.0168793852757353 .0178 0 1 0 29 255 6 122 0 9 12 0 .05185 .01925 .0
178 19 255 7 123 0 1 0 0 3 V16 255 8 80 0 ?13 0 14 5 0 0 1 18 255 9 120 0 15 0 1
6 6 ?1 17 255 15 0 0 0 0 9 17 18 0 13 -18 16 117 0 19 9 20 12 ?1 17 19 0 21 13 2
2 16 23 14 0 24 +18 20 114 0 22 16 25 26 ?1 29 12 119 0 16 26 6 .05185 .0015 .01
78 29 26 116 0 20 27 12 .02185 .0015 .0178 29 27 113 0 25 28 26 .02185 .01925 .0
178 18 25 111 0 17 20 29 27 ?1 29 28 101 0 29 30 27 .02435 .01725 .0178 18 29 99
 0 31 25 32 28 ?1 29 30 98 0 32 33 28 .02435 .0058 .0178 18 32 96 0 34 29 35 30
 ?1 29 33 95 0 35 36 30 .04935 .0058 .0178 18 35 93 0 37 32 38 33 ?1 29 36 92 0
 38 0 33 .04935 .01725 .0178 18 38 90 0 39 35 0 36 ?1 17 39 0 40 37 41 38 31 42
 0 43 -15 255 40 6 0 39 10 21 17 37 0 40 34 39 35 43 44 0 45 +17 41 0 40 39 34 2
9 46 47 0 0 +17 31 0 0 0 0 29 39 42 0 41 +16 42 8 0 ?31 44 0 48 0 0 1 17 43 0 0
 0 0 38 37 44 0 0 -16 44 20 0 ?37 49 42 50 0 0 1 16 49 27 0 ?34 47 44 51 0 0 1 3
0 50 21 0 44 48 51 0 +.04935 -.0168793852757353 .0178 0 -1 0 30 48 9 0 42 0 50 0
 +.03685 .01725 .0178 -1 0 0 30 51 28 0 49 50 52 0 +.03685 .0058 .0178 -1 346944
6951953615e-32 0 30 52 35 0 47 51 53 0 +.02435 -.0168793852757353 .0178 0 1 0 16
 47 34 0 ?41 18 49 52 0 0 1 30 53 60 0 18 52 54 0 +.03685 .01925 .0178 -1 0 0 16
 18 59 0 ?17 55 47 53 0 0 1 30 54 67 0 55 53 11 0 +.02185 -.0168793852757353 .01
78 195461800110063e-30 -1 0 16 55 66 0 ?22 14 18 54 0 0 1 30 11 74 0 14 54 5 0 +
.03685 .0015 .0178 1 -433680868994202e-31 0 16 14 73 0 ?19 8 55 11 0 0 1 17 22 0
 21 19 17 20 56 55 0 23 +15 21 7 0 17 10 0 17 17 0 21 22 13 25 15 18 0 56 +17 56
 0 0 0 0 25 22 55 0 0 -17 23 0 0 0 0 20 19 14 0 0 -17 13 0 21 17 19 9 24 8 0 0 +
17 24 0 0 0 0 16 13 8 0 0 -14 255 10 1 0 ?0 0 40 3 4 +0 0 0 0 3 17 34 0 40 41 37
 32 45 49 0 46 +17 45 0 0 0 0 35 34 49 0 0 -17 46 0 0 0 0 32 41 47 0 0 -1 0 
