**ABCDEFGHIJKLMNOPQRSTUVWXYZabcdefghijklmnopqrstuvwxyz**************************
**PARASOLID !"#$%&'()*+,-./:;<=>?@[\]^_`{|}~0123456789**************************
**PART1;
MC=AMD64;
MC_MODEL=Intel64 Family 6 Model 23 Stepping 6, GenuineIntel;
MC_ID=unknown;
OS=Windows_NT;
OS_RELEASE=unknown;
FRU=Parasolid Version 21.0, build 296,  4-10-2010;
APPL=SolidWorks 2010-2010164;
SITE=;
USER=unknown;
FORMAT=text;
GUISE=transmit;
KEY=makeProjectedPlanarWire;
FILE=makeProjectedPlanarWire.x_t;
DATE=Sun Sep 11 15:01:55 2011;
**PART2;
SCH=SCH_2100296_20000;
USFLD_SIZE=0;
**PART3;
**END_OF_HEADER*****************************************************************
T51 : TRANSMIT FILE created by modeller version 210029623 SCH_2100296_20000_1300
6186 0 12 27 CCCCCCCCCCCCCCCCCCCCCCCA16 index_map_offset0 0 1 dA9 index_map82 0
 A17 node_id_index_map82 0 A20 schema_embedding_map82 0 Z1 256 0 0 0 0 0 0 1e3 1
e-8 0 2 0 1 0 3 1 3 4 5 6 7 8 9 0 0 0 0 13 255 3 185 0 1 0 10 0 0 7 10 50 255 4
 2 0 10 0 0 0 +0 -.03225 -.1562641892345965 1 0 0 0 0 -1 31 255 5 114 0 8 11 0 0
 -0 -.0040875 -.0480495945608963 1 0 0 0 0 -1 .0044875 29 255 6 183 0 9 12 0 0 .
0004000000000000115 -.0480495945608963 19 255 7 184 0 1 0 0 3 V16 255 8 113 0 ?1
3 0 14 5 0 0 1 18 255 9 181 0 15 0 16 6 ?1 17 255 15 0 0 0 0 9 17 18 0 19 +18 16
 178 0 20 9 21 12 ?1 17 20 0 22 19 23 16 24 14 0 13 -18 21 175 0 23 16 25 26 ?1
 29 12 180 0 16 26 6 0 -.000883372750420414 -.0511914451013425 29 26 177 0 21 27
 12 0 -.0393612265139308 -.090431993995019 29 27 171 0 25 28 26 0 -.063008034273
0953 -.0727335672885536 18 25 169 0 29 21 30 27 ?1 29 28 168 0 30 31 27 0 -.0246
6661155073825 -.004096512401083885 18 30 166 0 32 25 33 28 ?1 29 31 165 0 33 34
 28 0 -.02466661155073825 .0040965124010839 18 33 163 0 35 30 36 31 ?1 29 34 162
 0 36 37 31 0 -.0630080342730953 .0727335672885536 18 36 160 0 38 33 39 34 ?1 29
 37 159 0 39 40 34 0 -.0393612265139339 .0904319939950221 18 39 157 0 41 36 42 3
7 ?1 29 40 156 0 42 43 37 0 -.000883372750420414 .0511914451013425 18 42 154 0 4
4 39 45 40 ?1 29 43 153 0 45 46 40 0 .0004000000000000055 .0480495945608963 18 4
5 151 0 17 42 47 43 ?1 29 46 150 0 47 48 43 0 -.062222314082103 .073172479331526
9 18 47 148 0 49 45 50 46 ?1 29 48 147 0 50 51 46 0 -.0238808913597459 .00453542
444405716 18 50 145 0 52 47 53 48 ?1 29 51 144 0 53 54 48 0 -.0238808913597459 -
.00453542444405716 18 53 142 0 55 50 56 51 ?1 29 54 141 0 56 57 51 0 -.062222314
0821029 -.0731724793315269 18 56 139 0 58 53 59 54 ?1 29 57 135 0 59 60 54 0 -.0
400038369929551 -.0898018735523668 18 59 133 0 61 56 62 57 ?1 29 60 132 0 62 63
 57 0 -.001525983229444735 -.0505613246586903 18 62 130 0 64 59 65 60 ?1 29 63 1
29 0 65 66 60 0 -.000499999999999994 -.0480495945608963 18 65 127 0 67 62 68 63
 ?1 29 66 126 0 68 69 63 0 -.000499999999999994 .0480495945608963 18 68 124 0 70
 65 71 66 ?1 29 69 123 0 71 72 66 0 -.001525983229444775 .0505613246586903 18 71
 121 0 73 68 74 69 ?1 29 72 120 0 74 0 69 0 -.0400038369929552 .0898018735523668
 18 74 118 0 75 71 0 72 ?1 17 75 0 76 73 77 74 49 78 0 79 -15 255 76 6 0 75 10 2
2 17 73 0 76 70 75 71 79 80 0 81 -17 77 0 76 75 52 47 82 83 0 0 +17 49 0 0 0 0 4
7 75 78 0 77 +16 78 8 0 ?49 80 0 84 0 0 1 17 79 0 0 0 0 74 73 80 0 0 +16 80 13 0
 ?79 85 78 86 0 0 1 16 85 18 0 ?81 87 80 88 0 0 1 30 255 86 14 0 80 84 88 0 +0 .
0868063319842182 -.039521884122577 0 -.700133825169058 .714011643360346 31 84 9
 0 78 0 86 0 +0 -.05 .08 1 0 0 0 0 -1 .014 31 88 19 0 85 86 89 0 +0 -.0040875 .0
480495945608963 1 0 0 0 0 -1 .0035875 30 89 24 0 87 88 90 0 +0 -.000499999999999
994 -.1562641892345965 0 0 -1 16 87 23 0 ?67 91 85 89 0 0 1 31 90 29 0 91 89 92
 0 +0 -.0040875 -.0480495945608963 1 0 0 0 0 -1 .0035875 16 91 28 0 ?93 94 87 90
 0 0 1 30 92 34 0 94 90 95 0 +0 -.0694277617304706 -.119809029471268 0 .70013382
5169058 .714011643360347 16 94 33 0 ?96 97 91 92 0 0 1 31 95 39 0 97 92 98 0 +0
 -.05 -.08 1 0 0 0 0 -1 .014 16 97 38 0 ?99 100 94 95 0 0 1 30 98 49 0 100 95 10
1 0 +0 -.090470706480719 -.1237414546558574 0 .487680047748083 .873022434435925
 16 100 48 0 ?55 102 97 98 0 0 1 31 101 54 0 102 98 103 0 +0 -.032 0 1 0 0 0 0 -
1 .0093 16 102 53 0 ?52 83 100 101 0 0 1 30 103 59 0 83 101 104 0 +0 .0425900078
467415 -.1144577279564876 0 -.487680047748083 .873022434435924 16 83 58 0 ?77 18
 102 103 0 0 1 30 104 64 0 18 103 105 0 +0 .0004000000000000185 -.15626418923459
65 0 631798480445447e-31 -1 16 18 63 0 ?15 106 83 104 0 0 1 31 105 69 0 106 104
 107 0 +0 -.0040875 .0480495945608963 1 0 0 0 0 -1 .0044875 16 106 68 0 ?44 108
 18 105 0 0 1 30 107 74 0 108 105 109 0 +0 .0874489424632425 -.0388917636799249
 0 -.700133825169058 .714011643360347 16 108 73 0 ?41 110 106 107 0 0 1 31 109 7
9 0 110 107 111 0 +0 -.05 .08 1 0 0 0 0 -1 .0149 16 110 78 0 ?38 112 108 109 0 0
 1 30 111 84 0 112 109 113 0 +0 .04180428765574915 -.1148966399994608 0 -.487680
047748083 .873022434435924 16 112 83 0 ?114 115 110 111 0 0 1 31 113 89 0 115 11
1 116 0 +0 -.032 0 1 0 0 0 0 -1 .0084 16 115 88 0 ?117 118 112 113 0 0 1 30 116
 94 0 118 113 119 0 +0 -.0912564266717114 -.123302542612884 0 .487680047748083 .
873022434435924 16 118 93 0 ?120 121 115 116 0 0 1 31 119 99 0 121 116 11 0 +0 -
.05 -.08 1 0 0 0 0 -1 .0149 16 121 98 0 ?23 14 118 119 0 0 1 30 11 109 0 14 119
 5 0 +0 -.0687851512514462 -.12043914991392 0 -.700133825169058 -.71401164336034
7 16 14 108 0 ?24 8 121 11 0 0 1 17 24 0 0 0 0 21 20 14 0 0 +17 23 0 22 20 29 21
 122 121 0 24 +15 22 7 0 17 10 0 17 29 0 22 23 32 25 120 118 0 122 -17 122 0 0 0
 0 25 23 121 0 0 -17 32 0 22 29 35 30 117 115 0 120 -17 120 0 0 0 0 30 29 118 0
 0 +17 35 0 22 32 38 33 114 112 0 117 -17 117 0 0 0 0 33 32 115 0 0 +17 38 0 22
 35 41 36 123 110 0 114 +17 114 0 0 0 0 36 35 112 0 0 +17 41 0 22 38 44 39 124 1
08 0 123 +17 123 0 0 0 0 39 38 110 0 0 -17 44 0 22 41 17 42 125 106 0 124 +17 12
4 0 0 0 0 42 41 108 0 0 -17 17 0 22 44 19 45 15 18 0 125 -17 125 0 0 0 0 45 44 1
06 0 0 -17 19 0 22 17 20 9 13 8 0 0 -17 13 0 0 0 0 16 19 8 0 0 +14 255 10 1 0 ?0
 0 76 3 4 +0 0 0 0 3 17 52 0 76 77 55 50 126 102 0 82 +17 55 0 76 52 58 53 127 1
00 0 126 +17 126 0 0 0 0 53 52 102 0 0 -17 82 0 0 0 0 50 77 83 0 0 -17 58 0 76 5
5 61 56 99 97 0 127 -17 127 0 0 0 0 56 55 100 0 0 -17 61 0 76 58 64 59 96 94 0 9
9 -17 99 0 0 0 0 59 58 97 0 0 +17 64 0 76 61 67 62 93 91 0 96 -17 96 0 0 0 0 62
 61 94 0 0 +17 67 0 76 64 70 65 128 87 0 93 +17 93 0 0 0 0 65 64 91 0 0 +17 70 0
 76 67 73 68 81 85 0 128 -17 128 0 0 0 0 68 67 87 0 0 -17 81 0 0 0 0 71 70 85 0
 0 +1 0 
